# Blender v3.1.2 OBJ File: 'untitled31-col-1.blend'
# www.blender.org
mtllib fall.mtl
o fall_Plane.006
v 12.563983 21.133753 -49.449787
v 8.954740 20.768789 -54.890266
v 14.662410 21.133753 -54.632366
v 8.954740 20.768789 -49.298973
v 8.954740 26.942612 -54.890266
v 8.954740 26.942612 -49.298973
v 14.662410 26.942612 -54.632366
v 12.563983 26.942612 -49.449787
v 14.092753 21.133753 -48.947601
v 17.952732 21.133753 -52.992733
v 17.952732 26.942612 -52.992733
v 14.092753 26.942612 -48.947601
v 18.965391 24.528418 -43.004051
v 22.825371 24.528418 -47.049187
v 22.825371 30.702240 -47.049187
v 18.965391 30.702240 -43.004051
v 18.899590 24.528418 -42.750599
v 25.227398 26.538841 -42.381481
v 25.227398 32.712666 -42.381481
v 18.899590 30.702240 -42.750599
v 18.665899 24.528416 -42.489040
v 22.290199 24.663155 -38.726501
v 22.290199 30.836979 -38.726501
v 18.665899 30.702240 -42.489040
v 15.685539 25.939562 -43.516068
v 16.404005 27.449928 -36.166687
v 16.404005 33.623753 -36.166687
v 15.685539 32.113388 -43.516068
v 13.925457 26.791260 -43.694637
v 11.975286 24.528416 -37.221214
v 11.975286 30.702240 -37.221214
v 13.925457 32.965084 -43.694637
v 8.610989 27.451233 -44.209229
v 5.437328 27.451233 -39.605927
v 5.437328 33.625057 -39.605927
v 8.610989 33.625057 -44.209229
v -5.364385 27.451235 -54.034847
v -8.538045 27.451235 -49.431549
v -8.538045 33.625061 -49.431549
v -5.364385 33.625061 -54.034847
v 0.297338 19.832033 -54.119480
v 7.306603 20.768791 -47.400719
v 0.297338 26.005856 -54.119480
v 7.306603 26.942614 -47.400719
v 6.231030 20.604113 -41.223682
v -7.296826 28.361725 -55.886864
v -12.388516 28.361725 -53.576626
v -12.388516 34.535549 -53.576626
v -7.296826 34.535549 -55.886864
v -7.213984 28.600140 -57.583195
v -12.685538 28.600140 -58.734112
v -12.685538 34.773964 -58.734112
v -7.213984 34.773964 -57.583195
v -7.061360 29.504244 -58.191422
v -10.964068 29.504244 -62.195343
v -10.964068 35.678070 -62.195343
v -7.061360 35.678070 -58.191422
v -6.162386 29.309879 -58.432003
v -6.776221 29.309879 -63.989494
v -6.776221 35.483704 -63.989494
v -6.162386 35.483704 -58.432003
v -3.910225 29.512730 -57.589394
v -2.174562 29.512730 -62.904465
v -2.174562 35.686554 -62.904465
v -3.910225 35.686554 -57.589394
v 1.072381 29.191273 -57.371487
v -0.463984 29.191273 -62.747551
v -0.463984 35.365097 -62.747551
v 1.072381 35.365097 -57.371487
v 4.160206 29.449820 -59.132454
v 0.142828 29.449820 -63.021305
v 0.142828 35.623642 -63.021305
v 4.160206 35.623642 -59.132454
v 6.116420 29.684860 -62.774506
v 0.596161 29.684860 -63.662891
v 0.596161 35.858681 -63.662891
v 6.116420 35.858681 -62.774506
v 7.267647 29.285458 -71.502419
v 1.747389 29.285458 -72.390808
v 1.747389 35.459282 -72.390808
v 7.267647 35.459282 -71.502419
v 7.811445 29.464724 -71.970306
v 4.041500 29.464724 -76.099464
v 4.041500 35.638546 -76.099464
v 7.811445 35.638546 -71.970306
v 8.719610 30.862013 -72.525253
v 8.862700 30.862013 -78.114700
v 8.862700 37.035835 -78.114700
v 8.719610 37.035835 -72.525253
v 10.089815 31.865574 -72.290833
v 14.132133 31.865574 -76.153755
v 14.132133 38.039398 -76.153755
v 10.089815 38.039398 -72.290833
v 10.280596 32.119675 -70.999954
v 15.868990 32.119675 -71.179817
v 15.868990 38.293495 -71.179817
v 10.280596 38.293495 -70.999954
v 9.467144 33.451672 -69.447655
v 14.594169 33.451672 -67.216934
v 14.594169 39.625496 -67.216934
v 9.467144 39.625496 -69.447655
v 0.713954 34.821789 -53.849957
v 4.659989 34.821789 -52.133076
v 4.659989 39.573494 -52.133076
v 0.713954 39.573494 -53.849957
v 5.090549 34.136730 -61.648804
v 5.090549 45.080196 -61.648804
v 9.627079 34.136730 -59.675003
v 9.627079 45.080196 -59.675003
v -5.360072 34.821785 -43.344696
v -1.972440 34.821785 -40.690865
v -1.972440 39.573494 -40.690865
v -5.360072 39.573494 -43.344696
v -5.466681 34.802521 -43.157402
v -2.206332 34.802521 -40.603279
v -2.206332 39.375694 -40.603279
v -5.466681 39.375694 -43.157402
v 6.191641 18.957905 -40.820194
v 7.483468 18.958479 -43.124489
v 6.688953 19.817694 -43.505421
v 4.880207 18.924467 -40.889935
vn -0.0451 0.0000 0.9990
vn -0.0417 0.0000 -0.9991
vn -0.0779 0.9968 -0.0152
vn 0.3121 0.0000 -0.9501
vn 0.0000 1.0000 0.0000
vn -0.4460 0.0000 0.8950
vn 0.7733 0.0000 -0.6340
vn -0.2941 0.9136 -0.2807
vn -0.7733 0.0000 0.6340
vn 0.9679 0.0000 0.2513
vn -0.2734 0.9289 -0.2497
vn -0.8892 0.0000 0.4576
vn 0.7457 0.0000 0.6663
vn -0.2894 0.9333 0.2126
vn -0.7795 0.0000 -0.6264
vn -0.3258 0.0000 0.9454
vn 0.3718 0.8862 -0.2765
vn -0.3988 0.0000 -0.9170
vn -0.1009 0.0000 0.9949
vn -0.3212 0.9467 0.0229
vn 0.2316 0.0000 -0.9728
vn -0.0964 0.0000 0.9953
vn 0.2116 0.9337 0.2887
vn 0.3427 0.0000 -0.9395
vn -0.5751 0.0000 0.8181
vn 0.5751 0.0000 -0.8181
vn 0.0887 0.0000 0.9961
vn -0.7551 0.0000 -0.6556
vn -0.0959 0.9952 -0.0211
vn -0.6919 0.0000 0.7220
vn 0.1373 0.9768 0.1642
vn 0.7327 0.0000 -0.6806
vn -0.9988 0.0000 -0.0488
vn 0.0076 0.9976 0.0692
vn 0.9983 0.0000 -0.0575
vn -0.9699 0.0000 -0.2434
vn -0.1807 0.9270 0.3287
vn 0.8954 0.0000 0.4453
vn -0.2585 0.0000 -0.9660
vn 0.0641 0.9975 -0.0303
vn 0.3938 0.0000 0.9192
vn 0.3504 0.0000 -0.9366
vn -0.0574 0.9983 -0.0059
vn -0.2295 0.0000 0.9733
vn 0.0437 0.0000 -0.9990
vn 0.0955 0.9954 0.0018
vn -0.0913 0.0000 0.9958
vn -0.4954 0.0000 -0.8687
vn -0.1044 0.9926 0.0626
vn 0.4112 0.0000 0.9115
vn -0.8810 0.0000 -0.4732
vn -0.0427 0.9954 0.0852
vn 0.8167 0.0000 0.5771
vn -0.9914 0.0000 -0.1308
vn 0.0072 0.9990 -0.0448
vn 0.9914 0.0000 0.1308
vn -0.6522 0.0000 -0.7580
vn -0.0338 0.9975 0.0626
vn 0.8504 0.0000 0.5261
vn -0.5214 0.0000 -0.8533
vn -0.3816 0.9133 0.1424
vn 0.3857 0.0000 0.9226
vn 0.1686 0.0000 -0.9857
vn -0.2534 0.9608 -0.1122
vn -0.3488 0.0000 0.9372
vn 0.9893 0.0000 -0.1462
vn -0.0301 0.9970 -0.0716
vn -0.9441 0.0000 0.3297
vn 0.8858 0.0000 0.4642
vn 0.0784 0.9090 -0.4094
vn -0.9520 0.0000 -0.3062
vn 0.8721 0.0000 0.4894
vn 0.0306 0.9970 -0.0704
vn -0.8351 0.0000 -0.5500
vn 0.8657 0.0000 0.5005
vn -0.8652 0.0000 -0.5015
vn 0.8691 0.0000 0.4947
vn -0.0555 0.9959 0.0708
vn -0.3507 0.0000 -0.9365
vn 0.6095 0.7152 0.3419
vn -0.0402 0.9537 0.2979
usemtl fall-boundary
s off
f 5//1 2//1 3//1 7//1
f 4//2 6//2 8//2 1//2
f 2//3 4//3 1//3 3//3
f 1//4 8//4 12//4 9//4
f 3//5 1//5 9//5 10//5
f 7//6 3//6 10//6 11//6
f 9//7 12//7 16//7 13//7
f 10//8 9//8 13//8 14//8
f 11//9 10//9 14//9 15//9
f 13//10 16//10 20//10 17//10
f 14//11 13//11 17//11 18//11
f 15//12 14//12 18//12 19//12
f 17//13 20//13 24//13 21//13
f 18//14 17//14 21//14 22//14
f 19//15 18//15 22//15 23//15
f 21//16 24//16 28//16 25//16
f 22//17 21//17 25//17 26//17
f 23//18 22//18 26//18 27//18
f 25//19 28//19 32//19 29//19
f 26//20 25//20 29//20 30//20
f 27//21 26//21 30//21 31//21
f 29//22 32//22 36//22 33//22
f 30//23 29//23 33//23 34//23
f 31//24 30//24 34//24 35//24
f 33//25 36//25 40//25 37//25
f 34//5 33//5 37//5 38//5
f 35//26 34//26 38//26 39//26
f 2//27 5//27 43//27 41//27
f 6//28 4//28 42//28 44//28
f 4//29 2//29 41//29 42//29
f 37//30 40//30 49//30 46//30
f 38//31 37//31 46//31 47//31
f 39//32 38//32 47//32 48//32
f 46//33 49//33 53//33 50//33
f 47//34 46//34 50//34 51//34
f 48//35 47//35 51//35 52//35
f 50//36 53//36 57//36 54//36
f 51//37 50//37 54//37 55//37
f 52//38 51//38 55//38 56//38
f 54//39 57//39 61//39 58//39
f 55//40 54//40 58//40 59//40
f 56//41 55//41 59//41 60//41
f 58//42 61//42 65//42 62//42
f 59//43 58//43 62//43 63//43
f 60//44 59//44 63//44 64//44
f 62//45 65//45 69//45 66//45
f 63//46 62//46 66//46 67//46
f 64//47 63//47 67//47 68//47
f 66//48 69//48 73//48 70//48
f 67//49 66//49 70//49 71//49
f 68//50 67//50 71//50 72//50
f 70//51 73//51 77//51 74//51
f 71//52 70//52 74//52 75//52
f 72//53 71//53 75//53 76//53
f 74//54 77//54 81//54 78//54
f 75//55 74//55 78//55 79//55
f 76//56 75//56 79//56 80//56
f 78//57 81//57 85//57 82//57
f 79//58 78//58 82//58 83//58
f 80//59 79//59 83//59 84//59
f 82//60 85//60 89//60 86//60
f 83//61 82//61 86//61 87//61
f 84//62 83//62 87//62 88//62
f 86//63 89//63 93//63 90//63
f 87//64 86//64 90//64 91//64
f 88//65 87//65 91//65 92//65
f 90//66 93//66 97//66 94//66
f 91//67 90//67 94//67 95//67
f 92//68 91//68 95//68 96//68
f 94//69 97//69 101//69 98//69
f 95//70 94//70 98//70 99//70
f 96//71 95//71 99//71 100//71
f 106//72 107//72 105//72 102//72
f 108//73 106//73 102//73 103//73
f 109//74 108//74 103//74 104//74
f 100//74 99//74 108//74 109//74
f 99//73 98//73 106//73 108//73
f 98//72 101//72 107//72 106//72
f 102//75 105//75 113//75 110//75
f 103//5 102//5 110//5 111//5
f 104//76 103//76 111//76 112//76
f 110//77 113//77 117//77 114//77
f 111//78 110//78 114//78 115//78
f 112//79 111//79 115//79 116//79
f 120//80 118//80 119//80
f 118//81 120//81 121//81
l 45 118
